<svg width="301" height="181" viewBox="0 0 301 181" fill="none" xmlns="http://www.w3.org/2000/svg">
<g clip-path="url(#clip0_135_2)">
<path d="M146.712 35.7203C141.724 37.3664 138.807 42.5399 138.407 50.4411C138.289 52.6986 138.36 53.357 138.877 55.497C139.583 58.3659 140.807 61.8697 143.583 68.9009C146.124 75.3677 146.571 76.8021 147.606 81.952C148.712 87.4782 150.1 95.2854 150.1 95.8968C150.1 96.179 150.194 96.4377 150.288 96.5082C150.406 96.5788 150.876 94.3213 151.37 91.5229C153.582 78.801 154.099 76.7551 157.463 67.7251C159.275 62.7868 160.734 58.3659 161.322 55.9673C161.934 53.4511 161.863 48.4423 161.204 45.2677C160.216 40.6116 157.816 37.2018 154.64 35.9555C152.688 35.203 148.665 35.0854 146.712 35.7203Z" fill="black"/>
<path d="M109.94 57.5899C104.693 59.4006 102.952 65.0914 106.34 69.3712C107.987 71.4406 111.422 73.2042 118.692 75.7204C123.491 77.3665 126.173 78.6364 129.067 80.5646C131.349 82.0696 134.713 85.1737 136.501 87.4312L137.725 88.9597L138.054 88.1602C139.183 85.4324 136.784 78.2601 132.596 71.8403C129.749 67.49 126.008 63.3042 122.691 60.788C121.044 59.5417 117.539 57.778 115.939 57.4017C114.269 57.002 111.351 57.096 109.94 57.5899Z" fill="black"/>
<path d="M182.637 57.7075C179.273 58.8127 176.026 61.0702 172.521 64.7387C167.157 70.3354 162.428 78.7305 161.369 84.4918C161.11 85.9733 161.228 88.0191 161.628 88.6541C161.816 88.9598 161.91 88.9127 162.263 88.4189C163.228 87.0315 165.51 84.5859 166.921 83.3866C170.309 80.5176 172.591 79.2948 179.508 76.567C188.33 73.1102 190.189 72.1931 192.401 70.1943C194.142 68.6187 194.918 66.9256 194.918 64.6681C194.918 63.3042 194.8 62.6458 194.377 61.8227C193.53 60.0826 192.33 58.8833 190.613 58.0367C189.201 57.3312 188.824 57.2607 186.684 57.2137C184.731 57.1431 184.049 57.2372 182.637 57.7075Z" fill="black"/>
<path d="M60.4633 62.7867C54.864 63.5157 49.9469 65.8437 46.959 69.2064C43.5947 72.9454 41.9714 78.5892 42.5831 84.2564C43.4536 92.2047 47.9472 97.6133 55.6404 100.012C58.5812 100.929 60.7691 101.188 64.2746 101.047C67.6154 100.906 69.3563 100.553 74.1793 99.0713C76.0614 98.4834 77.026 98.2953 77.1907 98.4599C77.5436 98.8126 60.3221 114.098 52.9113 119.977C41.5244 129.03 34.7723 132.322 26.0204 133.098C19.0801 133.733 13.3631 132.087 9.62237 128.395C6.75213 125.573 5.76401 123.151 5.76401 118.989C5.76401 115.885 6.14044 114.427 7.45792 112.475C8.35193 111.158 9.19889 110.406 10.7516 109.606C13.0102 108.478 17.245 108.031 19.0095 108.783C19.9505 109.159 21.1739 110.218 21.1739 110.617C21.1739 110.759 20.6328 111.158 19.9976 111.511C18.4448 112.381 17.8096 113.604 17.7861 115.697C17.7626 118.213 18.8213 119.694 21.5503 120.917C23.1031 121.623 26.1616 121.67 27.879 121.011C30.5846 119.977 32.1608 118.307 32.9843 115.603C34.3723 111.041 31.902 106.385 26.7732 103.939C24.303 102.74 22.1856 102.293 19.033 102.293C9.71648 102.293 2.9173 106.338 0.611691 113.275C0.0470532 114.944 0 115.438 0 118.895C0 122.234 0.0705797 122.846 0.564638 124.304C2.9173 131.264 8.18725 135.615 16.2333 137.214C18.8448 137.731 24.1383 137.919 27.0556 137.59C35.6898 136.602 43.6183 133.051 53.0524 125.926C57.3107 122.704 59.0752 121.199 67.8742 113.228C71.6384 109.818 75.3086 106.526 76.0614 105.914C77.92 104.386 78.1318 104.668 77.1907 107.443C75.6144 112.122 75.1909 118.284 76.1791 122.046C77.6377 127.525 81.1196 132.181 85.6603 134.721C89.6363 136.931 95.3532 137.802 100.694 136.978C103.517 136.555 105.07 136.085 107.234 135.027C110.904 133.216 113.633 130.535 115.304 127.102C116.762 124.092 116.951 122.164 116.057 119.013C115.374 116.52 114.151 114.521 112.128 112.522C109.187 109.583 106.27 108.407 101.988 108.407C97.2824 108.407 93.8005 110.077 92.1066 113.134C91.4713 114.286 91.4008 114.615 91.4008 116.52C91.4008 118.378 91.4949 118.801 92.0595 120C93.1417 122.187 94.6004 122.987 97.5177 122.987C99.7997 122.987 101.447 122.187 102.435 120.565C103.023 119.6 103.141 119.13 103.235 117.461C103.305 116.332 103.235 115.179 103.07 114.733L102.811 113.98L103.987 114.098C105.634 114.262 108.011 115.485 109.14 116.779C111.775 119.789 111.822 124.703 109.21 127.972C107.469 130.182 104.458 131.993 101.211 132.793C98.9528 133.357 94.5533 133.287 92.1066 132.652C85.3309 130.911 81.7313 126.302 81.0726 118.519C80.9079 116.614 81.2608 112.734 81.7784 110.594C83.8017 102.552 89.5422 97.2371 98.9057 94.7679C103.376 93.5921 106.34 93.2394 112.104 93.2629C116.809 93.2629 117.539 93.31 120.221 93.8978C135.372 97.1195 144.171 105.491 145.418 117.837C146.006 123.833 144.5 129.148 141.489 131.64C137.936 134.603 131.419 135.121 128.267 132.699C126.479 131.335 125.797 128.09 126.879 126.161C127.443 125.174 129.373 123.692 130.125 123.692C130.455 123.692 130.573 123.857 130.573 124.327C130.573 125.456 131.631 126.89 132.808 127.337C134.76 128.09 136.689 127.196 137.748 124.986C138.289 123.904 138.383 123.481 138.242 122.587C137.96 120.447 136.289 118.566 134.007 117.813C133.443 117.625 132.361 117.555 131.161 117.625C126.338 117.884 121.938 121.764 121.491 126.185C120.903 131.782 124.338 136.249 130.149 137.472C132.196 137.919 136.431 137.778 138.807 137.214C143.841 135.991 147.817 132.487 149.535 127.76C149.888 126.796 150.288 126.067 150.405 126.114C150.547 126.161 150.829 126.726 151.064 127.408C152.335 131.147 154.993 134.251 158.357 135.897C161.369 137.355 162.851 137.684 166.686 137.684C169.18 137.684 170.309 137.566 171.368 137.237C176.896 135.568 179.555 131.97 179.225 126.608C179.084 124.304 178.426 122.822 176.802 121.199C174.214 118.613 169.768 117.413 166.403 118.401C165.721 118.613 164.78 119.154 164.145 119.718C162.051 121.529 161.91 124.021 163.769 126.138C165.415 127.996 167.297 128.137 168.921 126.514C169.462 125.973 169.932 125.197 170.097 124.656C170.379 123.551 170.497 123.528 171.697 124.139C173.414 125.033 174.426 126.655 174.426 128.63C174.45 131.194 172.544 133.192 169.391 133.898C163.98 135.144 158.969 132.934 156.781 128.325C155.699 126.02 155.275 123.904 155.275 120.494C155.275 113.345 157.534 107.584 162.239 102.904C166.545 98.601 173.226 95.2853 180.731 93.7803C183.037 93.31 184.072 93.2394 188.448 93.2629C200.235 93.2864 208.61 96.0143 213.904 101.54C218.021 105.867 220.068 111.887 219.644 118.636C219.385 123.175 218.303 125.997 215.833 128.63C213.315 131.288 210.163 132.652 205.434 133.122C198.964 133.78 192.589 130.817 190.377 126.091C189.812 124.891 189.742 124.468 189.742 122.281C189.742 120.118 189.812 119.647 190.377 118.495C191.506 116.073 193.812 114.356 196.306 114.098L197.435 113.98L197.27 114.968C197.082 116.167 197.529 119.06 198.117 120.188C198.682 121.317 199.999 122.422 201.082 122.728C202.329 123.081 204.799 123.057 205.693 122.681C207.904 121.74 209.175 119.671 209.339 116.708C209.434 114.968 209.387 114.639 208.822 113.486C207.246 110.265 203.528 108.407 198.682 108.407C196.165 108.407 194.353 108.83 192.095 109.912C186.33 112.734 182.896 120 184.684 125.597C186.448 131.076 191.695 135.309 198.564 136.79C201.505 137.425 207.128 137.355 209.928 136.673C217.221 134.862 222.35 129.83 224.467 122.399C225.738 117.931 225.149 111.676 222.985 106.926C221.526 103.751 222.491 104.315 229.619 110.759C240.442 120.541 244.512 123.974 249.382 127.455C256.604 132.605 263.756 135.897 270.673 137.261C273.638 137.849 280.931 137.849 283.731 137.261C291.518 135.638 296.505 132.04 299.352 126.02C300.623 123.363 301.023 121.599 300.999 118.754C300.976 111.582 297 106.055 290.153 103.68C286.46 102.411 280.343 101.893 277.261 102.622C270.956 104.104 266.674 109.23 267.474 114.286C267.968 117.319 269.638 119.553 272.391 120.823C273.52 121.341 274.061 121.458 275.849 121.458C278.531 121.458 280.107 120.941 281.495 119.6C283.989 117.202 283.425 112.993 280.39 111.441C279.896 111.182 279.496 110.9 279.496 110.782C279.496 110.335 280.507 109.348 281.448 108.901C283.425 107.937 287.612 108.383 290.365 109.865C293.494 111.535 295.023 114.521 295.023 118.989C295.023 122.775 293.87 125.762 291.424 128.207C288.012 131.617 283.66 133.145 277.378 133.145C265.615 133.145 257.075 128.466 236.324 110.547C226.137 101.776 222.773 98.695 223.008 98.4599C223.173 98.2953 224.326 98.5304 226.726 99.1889C234.136 101.282 237.43 101.587 242.159 100.623C246.911 99.6592 250.111 98.0366 253.146 95.0031C255.452 92.7221 256.816 90.3705 257.663 87.3135C258.345 84.8208 258.392 79.2241 257.757 76.7785C256.746 72.8043 254.275 69.1124 251.17 66.9254C245.1 62.6221 235.877 61.3757 229.149 63.986C222.961 66.361 218.562 72.1224 219.174 76.9901C219.738 81.4581 222.656 84.0918 227.267 84.374C230.09 84.5386 231.713 84.0448 233.172 82.5868C234.442 81.2935 234.913 80.0001 234.725 78.1659C234.419 75.1089 232.419 73.4157 229.055 73.2982C228.255 73.2746 227.737 73.1335 227.737 72.9925C227.737 72.5927 229.337 70.5233 230.255 69.7473C233.525 66.9725 240.771 67.1371 246.041 70.1C248.017 71.2053 250.582 73.9096 251.476 75.8143C254.181 81.4346 252.793 88.8655 248.37 92.7691C246.958 94.0154 243.994 95.5439 241.971 96.0613C237.665 97.19 232.066 96.5316 223.738 93.9449C217.127 91.8755 205.881 89.6885 196.682 88.6303C190.918 87.9954 184.731 87.9249 181.108 88.5128C169.932 90.2764 159.793 95.9202 154.57 103.257C153.44 104.88 151.582 108.36 150.852 110.288L150.523 111.111L150.288 110.523C148.241 105.75 145.63 101.776 142.665 99.0007C134.196 91.0995 121.397 86.7726 109.21 87.6662C100.035 88.3717 86.1543 91.076 76.6966 94.0389C70.7209 95.8967 65.6392 96.7903 62.2278 96.5786C57.8989 96.2964 54.7699 94.956 51.9702 92.1812C49.1 89.3358 47.9707 86.4669 47.9707 82.0695C47.9472 77.8602 49.0529 75.1324 51.8761 72.3105C54.6287 69.5357 58.2048 68.0307 62.4866 67.7955C67.0272 67.5368 70.2974 68.8537 72.2736 71.7226C72.7442 72.4281 73.1677 73.063 73.1677 73.1335C73.1677 73.2041 72.4619 73.2982 71.5914 73.3217C68.6035 73.3922 66.6978 74.8502 66.1097 77.4839C65.2392 81.4346 68.0624 84.421 72.6971 84.421C76.7907 84.421 79.7551 82.6339 80.9785 79.4122C83.4488 72.9219 78.1082 65.6085 69.2622 63.351C66.7449 62.7161 62.8865 62.4575 60.4633 62.7867Z" fill="black"/>
<path d="M161.5 159.5L301 159" stroke="black" stroke-width="3"/>
<path d="M0 159.5L139.5 159" stroke="black" stroke-width="3"/>
</g>
<defs>
<clipPath id="clip0_135_2">
<rect width="301" height="180.6" fill="white"/>
</clipPath>
</defs>
</svg>
