<svg width="301" height="181" viewBox="0 0 301 181" fill="none" xmlns="http://www.w3.org/2000/svg">
<path d="M146.644 35.7203C141.658 37.3664 138.742 42.5399 138.342 50.4411C138.225 52.6986 138.295 53.357 138.813 55.497C139.518 58.3659 140.741 61.8697 143.516 68.9009C146.056 75.3677 146.502 76.8021 147.537 81.952C148.642 87.4782 150.03 95.2854 150.03 95.8968C150.03 96.179 150.124 96.4377 150.218 96.5082C150.335 96.5788 150.806 94.3213 151.3 91.5229C153.51 78.801 154.027 76.7551 157.39 67.7251C159.201 62.7868 160.659 58.3659 161.247 55.9673C161.858 53.4511 161.788 48.4423 161.129 45.2677C160.141 40.6116 157.743 37.2018 154.568 35.9555C152.616 35.203 148.595 35.0854 146.644 35.7203Z" fill="black"/>
<path d="M109.888 57.5899C104.644 59.4006 102.904 65.0914 106.29 69.3712C107.937 71.4406 111.37 73.2042 118.636 75.7204C123.433 77.3665 126.114 78.6364 129.007 80.5646C131.288 82.0696 134.65 85.1737 136.438 87.4312L137.66 88.9597L137.99 88.1602C139.118 85.4324 136.72 78.2601 132.534 71.8403C129.689 67.49 125.95 63.3042 122.634 60.788C120.988 59.5417 117.484 57.778 115.885 57.4017C114.215 57.002 111.299 57.096 109.888 57.5899Z" fill="black"/>
<path d="M182.552 57.7075C179.189 58.8127 175.944 61.0702 172.44 64.7387C167.079 70.3354 162.352 78.7305 161.294 84.4918C161.035 85.9733 161.153 88.0191 161.552 88.6541C161.741 88.9598 161.835 88.9127 162.187 88.4189C163.151 87.0315 165.432 84.5859 166.843 83.3866C170.23 80.5176 172.511 79.2948 179.424 76.567C188.243 73.1102 190.1 72.1931 192.311 70.1943C194.051 68.6187 194.827 66.9256 194.827 64.6681C194.827 63.3042 194.709 62.6458 194.286 61.8227C193.44 60.0826 192.24 58.8833 190.524 58.0367C189.113 57.3312 188.736 57.2607 186.597 57.2137C184.645 57.1431 183.963 57.2372 182.552 57.7075Z" fill="black"/>
<path d="M60.4352 62.7867C54.8384 63.5157 49.9237 65.8437 46.9372 69.2064C43.5745 72.9454 41.9519 78.5892 42.5633 84.2564C43.4334 92.2047 47.9248 97.6133 55.6145 100.012C58.5539 100.929 60.7409 101.188 64.2447 101.047C67.5839 100.906 69.3241 100.553 74.1448 99.0713C76.026 98.4834 76.9902 98.2953 77.1548 98.4599C77.5075 98.8126 60.2941 114.098 52.8866 119.977C41.5051 129.03 34.7561 132.322 26.0083 133.098C19.0712 133.733 13.3569 132.087 9.61789 128.395C6.74898 125.573 5.76133 123.151 5.76133 118.989C5.76133 115.885 6.13758 114.427 7.45445 112.475C8.34805 111.158 9.19461 110.406 10.7466 109.606C13.0041 108.478 17.237 108.031 19.0006 108.783C19.9412 109.159 21.1641 110.218 21.1641 110.617C21.1641 110.759 20.6232 111.158 19.9883 111.511C18.4362 112.381 17.8013 113.604 17.7778 115.697C17.7543 118.213 18.8125 119.694 21.5403 120.917C23.0923 121.623 26.1494 121.67 27.866 121.011C30.5703 119.977 32.1459 118.307 32.9689 115.603C34.3563 111.041 31.8872 106.385 26.7608 103.939C24.2916 102.74 22.1752 102.293 19.0241 102.293C9.71195 102.293 2.91594 106.338 0.611406 113.275C0.0470312 114.944 0 115.438 0 118.895C0 122.234 0.0705469 122.846 0.564375 124.304C2.91594 131.264 8.18344 135.615 16.2258 137.214C18.836 137.731 24.127 137.919 27.043 137.59C35.6732 136.602 43.598 133.051 53.0277 125.926C57.2841 122.704 59.0477 121.199 67.8426 113.228C71.6051 109.818 75.2735 106.526 76.026 105.914C77.8837 104.386 78.0954 104.668 77.1548 107.443C75.5792 112.122 75.1559 118.284 76.1436 122.046C77.6016 127.525 81.0819 132.181 85.6204 134.721C89.5945 136.931 95.3088 137.802 100.647 136.978C103.469 136.555 105.021 136.085 107.184 135.027C110.853 133.216 113.58 130.535 115.25 127.102C116.708 124.092 116.896 122.164 116.003 119.013C115.321 116.52 114.098 114.521 112.075 112.522C109.136 109.583 106.22 108.407 101.94 108.407C97.2371 108.407 93.7568 110.077 92.0637 113.134C91.4287 114.286 91.3582 114.615 91.3582 116.52C91.3582 118.378 91.4523 118.801 92.0166 120C93.0984 122.187 94.5563 122.987 97.4723 122.987C99.7533 122.987 101.399 122.187 102.387 120.565C102.975 119.6 103.092 119.13 103.187 117.461C103.257 116.332 103.187 115.179 103.022 114.733L102.763 113.98L103.939 114.098C105.585 114.262 107.96 115.485 109.089 116.779C111.723 119.789 111.77 124.703 109.16 127.972C107.419 130.182 104.409 131.993 101.164 132.793C98.9067 133.357 94.5093 133.287 92.0637 132.652C85.2912 130.911 81.6933 126.302 81.0348 118.519C80.8702 116.614 81.223 112.734 81.7403 110.594C83.7627 102.552 89.5005 97.2371 98.8597 94.7679C103.328 93.5921 106.291 93.2394 112.052 93.2629C116.755 93.2629 117.484 93.31 120.165 93.8978C135.309 97.1195 144.104 105.491 145.35 117.837C145.938 123.833 144.433 129.148 141.423 131.64C137.872 134.603 131.358 135.121 128.207 132.699C126.42 131.335 125.738 128.09 126.82 126.161C127.384 125.174 129.312 123.692 130.065 123.692C130.394 123.692 130.512 123.857 130.512 124.327C130.512 125.456 131.57 126.89 132.746 127.337C134.697 128.09 136.626 127.196 137.684 124.986C138.225 123.904 138.319 123.481 138.178 122.587C137.896 120.447 136.226 118.566 133.945 117.813C133.381 117.625 132.299 117.555 131.1 117.625C126.279 117.884 121.881 121.764 121.435 126.185C120.847 131.782 124.28 136.249 130.088 137.472C132.134 137.919 136.367 137.778 138.742 137.214C143.775 135.991 147.749 132.487 149.465 127.76C149.818 126.796 150.218 126.067 150.335 126.114C150.476 126.161 150.759 126.726 150.994 127.408C152.264 131.147 154.921 134.251 158.284 135.897C161.294 137.355 162.775 137.684 166.608 137.684C169.101 137.684 170.23 137.566 171.288 137.237C176.814 135.568 179.471 131.97 179.142 126.608C179.001 124.304 178.342 122.822 176.72 121.199C174.133 118.613 169.689 117.413 166.326 118.401C165.644 118.613 164.703 119.154 164.069 119.718C161.976 121.529 161.835 124.021 163.692 126.138C165.338 127.996 167.22 128.137 168.842 126.514C169.383 125.973 169.853 125.197 170.018 124.656C170.3 123.551 170.418 123.528 171.617 124.139C173.334 125.033 174.345 126.655 174.345 128.63C174.368 131.194 172.464 133.192 169.312 133.898C163.904 135.144 158.895 132.934 156.708 128.325C155.626 126.02 155.203 123.904 155.203 120.494C155.203 113.345 157.461 107.584 162.164 102.904C166.467 98.601 173.146 95.2853 180.647 93.7803C182.952 93.31 183.986 93.2394 188.36 93.2629C200.141 93.2864 208.513 96.0143 213.804 101.54C217.919 105.867 219.965 111.887 219.542 118.636C219.283 123.175 218.201 125.997 215.732 128.63C213.216 131.288 210.065 132.652 205.338 133.122C198.872 133.78 192.499 130.817 190.288 126.091C189.724 124.891 189.654 124.468 189.654 122.281C189.654 120.118 189.724 119.647 190.288 118.495C191.417 116.073 193.722 114.356 196.214 114.098L197.343 113.98L197.179 114.968C196.99 116.167 197.437 119.06 198.025 120.188C198.589 121.317 199.906 122.422 200.988 122.728C202.234 123.081 204.704 123.057 205.597 122.681C207.808 121.74 209.077 119.671 209.242 116.708C209.336 114.968 209.289 114.639 208.725 113.486C207.149 110.265 203.434 108.407 198.589 108.407C196.073 108.407 194.263 108.83 192.005 109.912C186.244 112.734 182.81 120 184.598 125.597C186.361 131.076 191.605 135.309 198.472 136.79C201.411 137.425 207.032 137.355 209.83 136.673C217.12 134.862 222.246 129.83 224.363 122.399C225.632 117.931 225.045 111.676 222.881 106.926C221.423 103.751 222.387 104.315 229.512 110.759C240.33 120.541 244.398 123.974 249.266 127.455C256.485 132.605 263.634 135.897 270.547 137.261C273.51 137.849 280.8 137.849 283.598 137.261C291.382 135.638 296.367 132.04 299.213 126.02C300.483 123.363 300.882 121.599 300.859 118.754C300.835 111.582 296.861 106.055 290.018 103.68C286.326 102.411 280.212 101.893 277.132 102.622C270.829 104.104 266.55 109.23 267.349 114.286C267.843 117.319 269.513 119.553 272.264 120.823C273.393 121.341 273.934 121.458 275.721 121.458C278.401 121.458 279.977 120.941 281.364 119.6C283.857 117.202 283.293 112.993 280.259 111.441C279.765 111.182 279.366 110.9 279.366 110.782C279.366 110.335 280.377 109.348 281.317 108.901C283.293 107.937 287.479 108.383 290.23 109.865C293.357 111.535 294.886 114.521 294.886 118.989C294.886 122.775 293.734 125.762 291.288 128.207C287.878 131.617 283.528 133.145 277.249 133.145C265.491 133.145 256.955 128.466 236.214 110.547C226.032 101.776 222.669 98.695 222.905 98.4599C223.069 98.2953 224.221 98.5304 226.62 99.1889C234.027 101.282 237.32 101.587 242.046 100.623C246.796 99.6592 249.995 98.0366 253.028 95.0031C255.333 92.7221 256.697 90.3705 257.543 87.3135C258.225 84.8208 258.272 79.2241 257.637 76.7785C256.626 72.8043 254.157 69.1124 251.053 66.9254C244.986 62.6221 235.768 61.3757 229.042 63.986C222.858 66.361 218.46 72.1224 219.072 76.9901C219.636 81.4581 222.552 84.0918 227.161 84.374C229.983 84.5386 231.605 84.0448 233.063 82.5868C234.333 81.2935 234.804 80.0001 234.615 78.1659C234.31 75.1089 232.311 73.4157 228.948 73.2982C228.149 73.2746 227.631 73.1335 227.631 72.9925C227.631 72.5927 229.23 70.5233 230.147 69.7473C233.416 66.9725 240.659 67.1371 245.926 70.1C247.902 71.2053 250.465 73.9096 251.359 75.8143C254.063 81.4346 252.675 88.8655 248.254 92.7691C246.844 94.0154 243.881 95.5439 241.858 96.0613C237.555 97.19 231.958 96.5316 223.634 93.9449C217.026 91.8755 205.785 89.6885 196.591 88.6303C190.829 87.9954 184.645 87.9249 181.023 88.5128C169.853 90.2764 159.718 95.9202 154.498 103.257C153.369 104.88 151.511 108.36 150.782 110.288L150.453 111.111L150.218 110.523C148.172 105.75 145.562 101.776 142.599 99.0007C134.133 91.0995 121.341 86.7726 109.16 87.6662C99.9884 88.3717 86.1142 91.076 76.6609 94.0389C70.688 95.8967 65.6086 96.7903 62.1988 96.5786C57.872 96.2964 54.7444 94.956 51.946 92.1812C49.0771 89.3358 47.9484 86.4669 47.9484 82.0695C47.9248 77.8602 49.0301 75.1324 51.852 72.3105C54.6033 69.5357 58.1777 68.0307 62.4575 67.7955C66.996 67.5368 70.2647 68.8537 72.24 71.7226C72.7103 72.4281 73.1336 73.063 73.1336 73.1335C73.1336 73.2041 72.4281 73.2982 71.558 73.3217C68.5716 73.3922 66.6668 74.8502 66.0789 77.4839C65.2088 81.4346 68.0307 84.421 72.6633 84.421C76.755 84.421 79.718 82.6339 80.9408 79.4122C83.4099 72.9219 78.0719 65.6085 69.23 63.351C66.7138 62.7161 62.8573 62.4575 60.4352 62.7867Z" fill="black"/>
</svg>
