<svg width="257" height="81" viewBox="0 0 257 81" fill="none" xmlns="http://www.w3.org/2000/svg">
<mask id="mask0_77_15" style="mask-type:alpha" maskUnits="userSpaceOnUse" x="0" y="0" width="81" height="81">
<circle cx="40.5" cy="40.5" r="40.5" fill="#D9D9D9"/>
</mask>
<g mask="url(#mask0_77_15)">
<circle cx="40.5" cy="40.5" r="40.5" fill="#777777"/>
<circle cx="40.5" cy="40.5" r="30.4065" fill="#777777" stroke="white" stroke-width="1.51402"/>
<ellipse cx="40.5" cy="57.9111" rx="7.9486" ry="9.96729" fill="white"/>
<path d="M31.7944 22.2056C31.7944 16.7008 35.7317 14.1308 40.1215 14.1308C44.5114 14.1308 48.9533 16.7008 48.9533 22.2056C48.9533 27.7104 48.4486 34.0654 40.1215 34.0654C31.7945 34.0654 31.7944 27.7104 31.7944 22.2056Z" fill="white"/>
<rect x="38.6075" y="61.5701" width="3.53271" height="27" fill="white"/>
<rect x="42.014" y="20.4392" width="3.53271" height="27" transform="rotate(-180 42.014 20.4392)" fill="white"/>
<rect x="37.2197" y="23.7196" width="1.26168" height="10.3458" fill="#777777"/>
<rect x="42.2664" y="23.7196" width="1.26168" height="10.3458" fill="#777777"/>
</g>
<path d="M103.257 42.6816H108.843L106.095 34.0197L103.257 42.6816ZM103.541 28.9869H108.738L116.534 51H111.546L110.127 46.4749H102.018L100.494 51H95.6856L103.541 28.9869ZM128.018 34.3334C129.701 34.3334 131.075 34.7764 132.14 35.6625C133.215 36.5386 133.753 37.9972 133.753 40.0382V51H129.392V41.0986C129.392 40.2423 129.278 39.5852 129.049 39.1273C128.631 38.2909 127.834 37.8728 126.659 37.8728C125.216 37.8728 124.225 38.4851 123.687 39.7097C123.409 40.3568 123.269 41.1832 123.269 42.1888V51H119.028V34.7515H123.135V37.1261C123.682 36.2897 124.2 35.6874 124.688 35.319C125.564 34.6619 126.674 34.3334 128.018 34.3334ZM146.716 34.3334C148.399 34.3334 149.773 34.7764 150.838 35.6625C151.913 36.5386 152.451 37.9972 152.451 40.0382V51H148.09V41.0986C148.09 40.2423 147.975 39.5852 147.747 39.1273C147.328 38.2909 146.532 37.8728 145.357 37.8728C143.913 37.8728 142.923 38.4851 142.385 39.7097C142.106 40.3568 141.967 41.1832 141.967 42.1888V51H137.726V34.7515H141.833V37.1261C142.38 36.2897 142.898 35.6874 143.386 35.319C144.262 34.6619 145.372 34.3334 146.716 34.3334ZM165.369 43.0848C165.1 43.2541 164.826 43.3935 164.548 43.503C164.279 43.6026 163.905 43.6971 163.427 43.7867L162.472 43.966C161.576 44.1253 160.933 44.3194 160.545 44.5484C159.888 44.9367 159.56 45.539 159.56 46.3554C159.56 47.0822 159.759 47.6099 160.157 47.9385C160.565 48.2571 161.058 48.4164 161.635 48.4164C162.551 48.4164 163.393 48.1476 164.159 47.6099C164.936 47.0723 165.339 46.0916 165.369 44.6679V43.0848ZM162.785 41.0986C163.572 40.999 164.134 40.8746 164.473 40.7252C165.08 40.4664 165.384 40.0631 165.384 39.5155C165.384 38.8485 165.15 38.3905 164.682 38.1416C164.224 37.8827 163.547 37.7533 162.651 37.7533C161.645 37.7533 160.933 38.0022 160.515 38.5C160.217 38.8684 160.017 39.3662 159.918 39.9934H155.811C155.901 38.5697 156.299 37.3999 157.006 36.4839C158.131 35.0502 160.062 34.3334 162.8 34.3334C164.582 34.3334 166.165 34.6868 167.549 35.3937C168.933 36.1006 169.625 37.4347 169.625 39.3961V46.8632C169.625 47.3809 169.635 48.0082 169.655 48.7449C169.685 49.3025 169.77 49.6808 169.909 49.8799C170.048 50.0791 170.257 50.2433 170.536 50.3728V51H165.907C165.777 50.6714 165.688 50.3628 165.638 50.0741C165.588 49.7853 165.548 49.4568 165.518 49.0884C164.931 49.7256 164.254 50.2682 163.487 50.7162C162.571 51.2439 161.536 51.5078 160.381 51.5078C158.907 51.5078 157.688 51.0896 156.722 50.2533C155.766 49.407 155.288 48.2123 155.288 46.6691C155.288 44.6679 156.06 43.2192 157.603 42.3232C158.449 41.8353 159.694 41.4869 161.337 41.2778L162.785 41.0986ZM184.634 42.8608C184.634 41.6063 184.345 40.4962 183.768 39.5305C183.2 38.5647 182.275 38.0819 180.99 38.0819C179.447 38.0819 178.387 38.8136 177.809 40.2772C177.511 41.0538 177.361 42.0394 177.361 43.2342C177.361 45.1259 177.864 46.455 178.87 47.2216C179.467 47.6697 180.174 47.8937 180.99 47.8937C182.175 47.8937 183.076 47.4357 183.693 46.5197C184.321 45.6038 184.634 44.3841 184.634 42.8608ZM182.215 34.3632C184.116 34.3632 185.724 35.0651 187.039 36.469C188.363 37.8728 189.025 39.9337 189.025 42.6517C189.025 45.5191 188.378 47.7045 187.083 49.2079C185.799 50.7113 184.141 51.463 182.11 51.463C180.816 51.463 179.741 51.1394 178.884 50.4922C178.417 50.1338 177.959 49.6111 177.511 48.9241V57.4068H173.299V34.7216H177.376V37.1261C177.834 36.4192 178.322 35.8616 178.84 35.4534C179.785 34.7266 180.911 34.3632 182.215 34.3632ZM196.358 34.7216V44.5335C196.358 45.4594 196.467 46.1563 196.686 46.6243C197.074 47.4506 197.836 47.8638 198.971 47.8638C200.425 47.8638 201.42 47.2764 201.958 46.1016C202.237 45.4644 202.376 44.6231 202.376 43.5777V34.7216H206.692V51H202.555V48.7001C202.515 48.7499 202.416 48.8992 202.257 49.1482C202.097 49.3971 201.908 49.6161 201.689 49.8053C201.022 50.4026 200.375 50.8108 199.748 51.0299C199.13 51.2489 198.404 51.3584 197.567 51.3584C195.158 51.3584 193.535 50.4922 192.699 48.7599C192.231 47.8041 191.997 46.3953 191.997 44.5335V34.7216H196.358ZM219.655 34.3334C219.735 34.3334 219.799 34.3383 219.849 34.3483C219.909 34.3483 220.033 34.3533 220.223 34.3632V38.724C219.954 38.6942 219.715 38.6742 219.506 38.6643C219.297 38.6543 219.127 38.6494 218.998 38.6494C217.285 38.6494 216.136 39.2069 215.548 40.322C215.22 40.9492 215.055 41.915 215.055 43.2192V51H210.769V34.7216H214.831V37.5592C215.488 36.4739 216.061 35.7322 216.549 35.334C217.345 34.6669 218.381 34.3334 219.655 34.3334ZM231.752 34.3334C233.434 34.3334 234.808 34.7764 235.874 35.6625C236.949 36.5386 237.487 37.9972 237.487 40.0382V51H233.126V41.0986C233.126 40.2423 233.011 39.5852 232.782 39.1273C232.364 38.2909 231.568 37.8728 230.393 37.8728C228.949 37.8728 227.958 38.4851 227.421 39.7097C227.142 40.3568 227.003 41.1832 227.003 42.1888V51H222.761V34.7515H226.868V37.1261C227.416 36.2897 227.934 35.6874 228.421 35.319C229.298 34.6619 230.408 34.3334 231.752 34.3334ZM250.405 43.0848C250.136 43.2541 249.862 43.3935 249.583 43.503C249.314 43.6026 248.941 43.6971 248.463 43.7867L247.507 43.966C246.611 44.1253 245.969 44.3194 245.581 44.5484C244.924 44.9367 244.595 45.539 244.595 46.3554C244.595 47.0822 244.794 47.6099 245.193 47.9385C245.601 48.2571 246.094 48.4164 246.671 48.4164C247.587 48.4164 248.428 48.1476 249.195 47.6099C249.972 47.0723 250.375 46.0916 250.405 44.6679V43.0848ZM247.821 41.0986C248.608 40.999 249.17 40.8746 249.509 40.7252C250.116 40.4664 250.42 40.0631 250.42 39.5155C250.42 38.8485 250.186 38.3905 249.718 38.1416C249.26 37.8827 248.583 37.7533 247.687 37.7533C246.681 37.7533 245.969 38.0022 245.551 38.5C245.252 38.8684 245.053 39.3662 244.954 39.9934H240.847C240.936 38.5697 241.335 37.3999 242.041 36.4839C243.167 35.0502 245.098 34.3334 247.836 34.3334C249.618 34.3334 251.201 34.6868 252.585 35.3937C253.969 36.1006 254.661 37.4347 254.661 39.3961V46.8632C254.661 47.3809 254.671 48.0082 254.691 48.7449C254.721 49.3025 254.805 49.6808 254.945 49.8799C255.084 50.0791 255.293 50.2433 255.572 50.3728V51H250.942C250.813 50.6714 250.723 50.3628 250.673 50.0741C250.624 49.7853 250.584 49.4568 250.554 49.0884C249.967 49.7256 249.29 50.2682 248.523 50.7162C247.607 51.2439 246.572 51.5078 245.417 51.5078C243.943 51.5078 242.723 51.0896 241.758 50.2533C240.802 49.407 240.324 48.2123 240.324 46.6691C240.324 44.6679 241.096 43.2192 242.639 42.3232C243.485 41.8353 244.73 41.4869 246.372 41.2778L247.821 41.0986Z" fill="#1E1E1E"/>
</svg>
